<svg width="22" height="17" viewBox="0 0 22 17" fill="none" xmlns="http://www.w3.org/2000/svg">
<path d="M19.7885 9.74475L13.4385 16.0947C13.3272 16.2066 13.2019 16.2905 13.0628 16.3465C12.9234 16.4025 12.7772 16.4305 12.624 16.4305H11.7212C11.5679 16.4305 11.4353 16.3745 11.3232 16.2625C11.2114 16.1507 11.1555 16.0181 11.1555 15.8647V14.968C11.1555 14.8147 11.1835 14.6684 11.2395 14.5293C11.2953 14.3901 11.3793 14.2648 11.4913 14.1533L17.8413 7.80325L19.7885 9.74475ZM0 12.1255V2.275C0 1.64533 0.22175 1.10875 0.66525 0.66525C1.10875 0.22175 1.64533 0 2.275 0H18.1315C18.7612 0 19.2978 0.22175 19.7413 0.66525C20.1848 1.10875 20.4065 1.64533 20.4065 2.275C20.4065 2.49817 20.3005 2.73158 20.0885 2.97525C19.8767 3.21892 19.6274 3.34075 19.3407 3.34075H19.07C18.7665 3.34075 18.4773 3.39775 18.2023 3.51175C17.9273 3.62575 17.6841 3.78833 17.4728 3.9995L13.9575 7.51475C13.7463 7.72592 13.5033 7.8885 13.2283 8.0025C12.9531 8.1165 12.6638 8.1735 12.3603 8.1735H5.23325C4.94992 8.1735 4.71242 8.26933 4.52075 8.461C4.32908 8.65267 4.23325 8.89017 4.23325 9.1735C4.23325 9.45683 4.32908 9.69433 4.52075 9.886C4.71242 10.0777 4.94992 10.1735 5.23325 10.1735H9.9255C10.1868 10.1735 10.3651 10.2884 10.4602 10.5182C10.5556 10.7481 10.5099 10.9563 10.3232 11.143L7.7245 13.742C7.51317 13.9532 7.27 14.1157 6.995 14.2297C6.72 14.3436 6.43075 14.4005 6.12725 14.4005H2.275C1.64533 14.4005 1.10875 14.1788 0.66525 13.7355C0.22175 13.292 0 12.7553 0 12.1255ZM5.23325 6.22725H9.23325C9.51658 6.22725 9.75408 6.13142 9.94575 5.93975C10.1374 5.74808 10.2333 5.51058 10.2333 5.22725C10.2333 4.94392 10.1374 4.70642 9.94575 4.51475C9.75408 4.32308 9.51658 4.22725 9.23325 4.22725H5.23325C4.94992 4.22725 4.71242 4.32308 4.52075 4.51475C4.32908 4.70642 4.23325 4.94392 4.23325 5.22725C4.23325 5.51058 4.32908 5.74808 4.52075 5.93975C4.71242 6.13142 4.94992 6.22725 5.23325 6.22725ZM20.4065 9.12675L18.4653 7.1855L19.3472 6.29725C19.4546 6.19008 19.5802 6.1365 19.724 6.1365C19.8678 6.1365 19.9933 6.19008 20.1005 6.29725L21.2885 7.4855C21.3958 7.59267 21.4495 7.71817 21.4495 7.862C21.4495 8.00583 21.3958 8.13142 21.2885 8.23875L20.4065 9.12675Z" fill="#828282"/>
</svg>
