<svg width="17" height="19" viewBox="0 0 17 19" fill="none" xmlns="http://www.w3.org/2000/svg">
<path d="M3.4125 18.55C2.78283 18.55 2.24625 18.3283 1.80275 17.8848C1.35925 17.4413 1.1375 16.9047 1.1375 16.275V3.4125C0.818333 3.4125 0.548917 3.30275 0.32925 3.08325C0.10975 2.86358 0 2.59417 0 2.275C0 1.95583 0.10975 1.68642 0.32925 1.46675C0.548917 1.24725 0.818333 1.1375 1.1375 1.1375H5.34075C5.34075 0.818333 5.4505 0.548916 5.67 0.32925C5.88967 0.10975 6.15908 0 6.47825 0H10.4663C10.7854 0 11.0548 0.10975 11.2745 0.32925C11.494 0.548916 11.6038 0.818333 11.6038 1.1375H15.819C16.1382 1.1375 16.4076 1.24725 16.6273 1.46675C16.8468 1.68642 16.9565 1.95583 16.9565 2.275C16.9565 2.59417 16.8468 2.86358 16.6273 3.08325C16.4076 3.30275 16.1382 3.4125 15.819 3.4125V16.275C15.819 16.9047 15.5972 17.4413 15.1538 17.8848C14.7103 18.3283 14.1737 18.55 13.544 18.55H3.4125ZM6.4425 14.3408C6.74167 14.3408 6.99408 14.2379 7.19975 14.0323C7.40542 13.8268 7.50825 13.5743 7.50825 13.275V6.4065C7.50825 6.10717 7.40542 5.85475 7.19975 5.64925C6.99408 5.44358 6.74167 5.34075 6.4425 5.34075C6.14317 5.34075 5.88967 5.44358 5.682 5.64925C5.4745 5.85475 5.37075 6.10717 5.37075 6.4065V13.275C5.37075 13.5743 5.4745 13.8268 5.682 14.0323C5.88967 14.2379 6.14317 14.3408 6.4425 14.3408ZM10.52 14.3408C10.8193 14.3408 11.0718 14.2379 11.2775 14.0323C11.483 13.8268 11.5857 13.5743 11.5857 13.275V6.4065C11.5857 6.10717 11.483 5.85475 11.2775 5.64925C11.0718 5.44358 10.8193 5.34075 10.52 5.34075C10.2208 5.34075 9.96742 5.44358 9.75975 5.64925C9.55208 5.85475 9.44825 6.10717 9.44825 6.4065V13.275C9.44825 13.5743 9.55208 13.8268 9.75975 14.0323C9.96742 14.2379 10.2208 14.3408 10.52 14.3408Z" fill="#828282"/>
</svg>
